<?xml version="1.0" encoding="utf-8"?>
<!-- Generator: Adobe Illustrator 16.0.0, SVG Export Plug-In . SVG Version: 6.00 Build 0)  -->
<!DOCTYPE svg PUBLIC "-//W3C//DTD SVG 1.1//EN" "http://www.w3.org/Graphics/SVG/1.1/DTD/svg11.dtd">
<svg version="1.1" xmlns="http://www.w3.org/2000/svg" xmlns:xlink="http://www.w3.org/1999/xlink" x="0px" y="0px"
	 width="19.498px" height="19.498px" viewBox="0 0 19.498 19.498" enable-background="new 0 0 19.498 19.498" xml:space="preserve">
<g id="形状_3_1_" enable-background="new    ">
	<g id="形状_3">
		<g>
			<path fill="none" stroke="#545759" stroke-miterlimit="10" d="M8.583,0.75C7.61,0.851,4.5,4.149,4.5,6.75c0,2.6,5.25,3,5.25,3
				S6.833,5.85,8.583,0.75z"/>
		</g>
	</g>
</g>
<g id="形状_3_拷贝_1_" enable-background="new    ">
	<g id="形状_3_拷贝">
		<g>
			<path fill-rule="evenodd" clip-rule="evenodd" fill="#545759" d="M0.75,10.916c0.1,0.972,3.399,4.082,6,4.082
				c2.6,0,3-5.249,3-5.249S5.85,12.665,0.75,10.916z"/>
		</g>
	</g>
</g>
<g id="形状_3_拷贝_2_1_" enable-background="new    ">
	<g id="形状_3_拷贝_2">
		<g>
			<path fill="none" stroke="#545759" stroke-miterlimit="10" d="M12.756,5.245c-2.6-0.006-3.014,5.241-3.014,5.241
				s3.908-2.906,9.002-1.142C18.646,8.372,15.355,5.252,12.756,5.245z"/>
		</g>
	</g>
</g>
<g id="形状_3_拷贝_3_1_" enable-background="new    ">
	<g id="形状_3_拷贝_3">
		<g>
			<path fill="none" stroke="#545759" stroke-miterlimit="10" d="M14.834,12.299c-0.769-2.483-5.901-1.314-5.901-1.314
				s3.938,2.864,3.773,8.253C13.605,18.854,15.603,14.783,14.834,12.299z"/>
		</g>
	</g>
</g>
</svg>
