<?xml version="1.0" encoding="utf-8"?>
<!-- Generator: Adobe Illustrator 16.0.0, SVG Export Plug-In . SVG Version: 6.00 Build 0)  -->
<!DOCTYPE svg PUBLIC "-//W3C//DTD SVG 1.1//EN" "http://www.w3.org/Graphics/SVG/1.1/DTD/svg11.dtd">
<svg version="1.1" xmlns="http://www.w3.org/2000/svg" xmlns:xlink="http://www.w3.org/1999/xlink" x="0px" y="0px"
	 width="16.498px" height="37.496px" viewBox="0 0 16.498 37.496" enable-background="new 0 0 16.498 37.496" xml:space="preserve">
<g id="圆角矩形_17_1_" enable-background="new    ">
	<g id="圆角矩形_17">
		<g>
			<path fill-rule="evenodd" clip-rule="evenodd" fill="#E58B21" d="M6.374,0C4.277,0,2.578,1.7,2.578,3.796v23.106
				c0,2.097,1.7,3.796,3.796,3.796s3.797-1.699,3.797-3.796V3.796C10.171,1.7,8.471,0,6.374,0z"/>
		</g>
	</g>
</g>
<g id="椭圆_9_1_" enable-background="new    ">
	<g id="椭圆_9">
		<g>
			<ellipse fill-rule="evenodd" clip-rule="evenodd" fill="#E58B21" cx="6.374" cy="31.027" rx="6.374" ry="6.468"/>
		</g>
	</g>
</g>
<g id="圆角矩形_18_1_" enable-background="new    ">
	<g id="圆角矩形_18">
		<g>
			<path fill-rule="evenodd" clip-rule="evenodd" fill="#8C8F99" d="M15.748,3.75h-4.499c-0.414,0-0.75,0.335-0.75,0.75
				s0.336,0.75,0.75,0.75h4.499c0.414,0,0.75-0.335,0.75-0.75S16.162,3.75,15.748,3.75z"/>
		</g>
	</g>
</g>
<g id="圆角矩形_18_拷贝_1_" enable-background="new    ">
	<g id="圆角矩形_18_拷贝">
		<g>
			<path fill-rule="evenodd" clip-rule="evenodd" fill="#8C8F99" d="M15.748,10.499h-4.499c-0.414,0-0.75,0.335-0.75,0.75
				s0.336,0.75,0.75,0.75h4.499c0.414,0,0.75-0.335,0.75-0.75S16.162,10.499,15.748,10.499z"/>
		</g>
	</g>
</g>
<g id="圆角矩形_18_拷贝_2_1_" enable-background="new    ">
	<g id="圆角矩形_18_拷贝_2">
		<g>
			<path fill-rule="evenodd" clip-rule="evenodd" fill="#8C8F99" d="M15.748,17.248h-4.499c-0.414,0-0.75,0.335-0.75,0.75
				s0.336,0.75,0.75,0.75h4.499c0.414,0,0.75-0.335,0.75-0.75S16.162,17.248,15.748,17.248z"/>
		</g>
	</g>
</g>
</svg>
