<?xml version="1.0" standalone="no"?><!DOCTYPE svg PUBLIC "-//W3C//DTD SVG 1.1//EN" "http://www.w3.org/Graphics/SVG/1.1/DTD/svg11.dtd"><svg class="icon" width="100px" height="100.00px" viewBox="0 0 1024 1024" version="1.1" xmlns="http://www.w3.org/2000/svg"><path d="M767.758 502.151C708.915 437.512 649.463 373.41 591.444 307.95l-7.262-6.582c-24.753-20.532-54.943-33.589-87.031-37.703a77.12 77.12 0 0 0-52.44 7.441 381.975 381.975 0 0 0-43.211 30.262l-44.928 33.553c-57.447 41.78-115.217 82.488-172.416 125.699-20.318 15.238-24.539 43.748-9.479 64.102 14.236 20.389 41.637 27.113 63.886 15.667a167.812 167.812 0 0 0 22.035-14.595l114.11-82.487c-20.64 100.659-41.566 199.673-61.669 299.545a57.312 57.312 0 0 1-14.202 24.182c-39.062 43.462-78.946 85.85-117.471 129.563-19.173 18.242-19.709 48.362-1.217 67.285 0.429 0.394 0.823 0.822 1.217 1.216 20.032 19.566 52.368 19.423 72.221-0.322a57.215 57.215 0 0 0 3.684-4.077c46.288-49.723 92.146-99.944 137.503-150.739a68.306 68.306 0 0 0 13.129-29.439c8.37-39.312 15.345-78.946 23.144-120.477 75.047 73.152 128.06 165.441 153.135 266.529 0 3.291 1.682 6.868 2.826 10.194 11.696 34.091 36.809 49.507 66.354 40.708 29.582-8.8 38.525-35.735 27.901-71.256-22.535-100.48-70.504-193.7-139.471-270.929-2.539-2.469-4.614-5.33-6.116-8.549-1.969-4.651-5.044-10.159-3.936-14.309 15.06-55.017 30.979-109.995 48.005-169.983 40.707 44.57 78.088 85.851 115.755 126.557 25.396 27.509 53.834 30.799 77.014 9.623 23.145-21.213 20.355-48.971-4.756-76.478zM561.896 259.266c54.372 0.751 99.086-42.103 99.838-95.688 0.035-0.751 0.035-1.502 0-2.218-0.68-54.407-45.966-97.941-101.125-97.261-55.123 0.679-99.3 45.321-98.585 99.729 1.359 53.336 45.751 95.76 99.872 95.438z" fill="#f8b021" /></svg>