<?xml version="1.0" encoding="utf-8"?>
<!-- Generator: Adobe Illustrator 16.0.0, SVG Export Plug-In . SVG Version: 6.00 Build 0)  -->
<!DOCTYPE svg PUBLIC "-//W3C//DTD SVG 1.1//EN" "http://www.w3.org/Graphics/SVG/1.1/DTD/svg11.dtd">
<svg version="1.1" id="形状_2_拷贝_2_1_" xmlns="http://www.w3.org/2000/svg" xmlns:xlink="http://www.w3.org/1999/xlink"
	 x="0px" y="0px" width="60px" height="60px" viewBox="0 0 60 60" enable-background="new 0 0 60 60" xml:space="preserve">
<g id="形状_2_拷贝_2">
	<g>
		<path fill-rule="evenodd" clip-rule="evenodd" fill="#0080EF" d="M32.395,7.874L13.995,20.049h-8.2c0,0-1.795,0.169-1.795,1.803
			v15.557c0,1.804,1.795,2.029,1.795,2.029l8.424,0.226l18.175,12.175c0,0,2.469,0.846,2.469-1.353V8.775
			C34.863,6.634,32.395,7.874,32.395,7.874z M44.512,18.47c1.738-1.747,6.059-6.087,7.629-7.665s-1.459-5.299-3.59-3.156
			c-2.132,2.142-5.217,5.467-7.405,7.665C38.958,17.512,42.772,20.218,44.512,18.47z M54.879,27.339
			c-3.015,0-7.537,0.16-10.631,0.16s-2.301,4.623,0.158,4.623h10.79C57.417,32.122,57.894,27.339,54.879,27.339z M44.26,39.218
			c-2.184-2.203-4.883,1.625-3.147,3.376c1.735,1.75,6.047,6.099,7.614,7.68c1.568,1.581,5.276-1.455,3.148-3.602
			C49.748,44.526,46.443,41.42,44.26,39.218z"/>
	</g>
</g>
</svg>
