<?xml version="1.0" encoding="utf-8"?>
<!-- Generator: Adobe Illustrator 16.0.0, SVG Export Plug-In . SVG Version: 6.00 Build 0)  -->
<!DOCTYPE svg PUBLIC "-//W3C//DTD SVG 1.1//EN" "http://www.w3.org/Graphics/SVG/1.1/DTD/svg11.dtd">
<svg version="1.1" id="组_1_1_" xmlns="http://www.w3.org/2000/svg" xmlns:xlink="http://www.w3.org/1999/xlink" x="0px" y="0px"
	 width="44.994px" height="44.994px" viewBox="0 0 44.994 44.994" enable-background="new 0 0 44.994 44.994" xml:space="preserve">
<g id="形状_7">
	<g>
		<path fill-rule="evenodd" clip-rule="evenodd" fill="#C257D9" d="M19.022,9.249h7.425c0.745,0,1.349-0.604,1.349-1.35
			c0-0.745-0.604-1.35-1.349-1.35h-7.425c-0.745,0-1.349,0.604-1.349,1.35C17.673,8.644,18.277,9.249,19.022,9.249z M20.373,5.199
			h4.725c0.745,0,1.35-0.604,1.35-1.35s-0.604-1.35-1.35-1.35h-4.725c0,0-1.35,0.604-1.35,1.35S19.627,5.199,20.373,5.199z
			 M33.196,39.62v2.024h-6.075l-0.674-1.35v-1.35l7.423-8.1V11.948h-4.049l-0.675-1.35H17.673l-1.35,1.35h-4.05v18.223l7.424,8.774
			v1.35l-0.675,1.35h-6.074V39.62h-2.7v3.374h25.646V39.62H33.196z"/>
	</g>
</g>
<g id="形状_8">
	<g>
		<polygon fill-rule="evenodd" clip-rule="evenodd" fill="#FFFFFF" points="20.373,15.998 15.648,15.998 14.973,17.348 
			14.973,30.171 18.348,34.896 19.698,34.896 21.048,33.545 21.048,17.348 		"/>
	</g>
</g>
<g id="形状_9">
	<g>
		<polygon fill-rule="evenodd" clip-rule="evenodd" fill="#FFFFFF" points="31.171,15.998 25.772,15.998 25.098,17.348 
			25.098,32.196 27.121,34.896 28.472,34.896 31.171,30.846 31.847,17.348 		"/>
	</g>
</g>
</svg>
