<?xml version="1.0" encoding="utf-8"?>
<!-- Generator: Adobe Illustrator 16.0.0, SVG Export Plug-In . SVG Version: 6.00 Build 0)  -->
<!DOCTYPE svg PUBLIC "-//W3C//DTD SVG 1.1//EN" "http://www.w3.org/Graphics/SVG/1.1/DTD/svg11.dtd">
<svg version="1.1" xmlns="http://www.w3.org/2000/svg" xmlns:xlink="http://www.w3.org/1999/xlink" x="0px" y="0px"
	 width="44.994px" height="44.994px" viewBox="0 0 44.994 44.994" enable-background="new 0 0 44.994 44.994" xml:space="preserve">
<g id="图层_4">
	<circle fill="none" stroke="#2E9EF0" stroke-width="0.25" stroke-miterlimit="10" cx="23.247" cy="21.747" r="14.998"/>
	<circle fill="none" stroke="#2E9EF0" stroke-width="0.25" stroke-miterlimit="10" cx="22.497" cy="22.497" r="22.497"/>
</g>
<g id="形状_1_1_" enable-background="new    ">
	<g id="形状_1">
		<g>
			<path fill-rule="evenodd" clip-rule="evenodd" fill="#2E9EF0" d="M30.598,28.202h-0.539c0,0-0.584-0.987-0.719-1.795
				s0-6.459,0-6.459c0-4.451-4.671-4.665-4.671-4.665v-1.435c-1.954-2.467-3.594,0-3.594,0v1.435
				c-4.328,0.548-4.671,4.665-4.671,4.665s0.135,5.876,0,6.459s-0.719,1.795-0.719,1.795h-0.539c-0.496,0-0.898,0.401-0.898,0.896
				c0,0.496,0.402,0.897,0.898,0.897h15.451c0.496,0,0.898-0.401,0.898-0.897C31.496,28.604,31.094,28.202,30.598,28.202z"/>
		</g>
	</g>
</g>
</svg>
