<?xml version="1.0" encoding="utf-8"?>
<!-- Generator: Adobe Illustrator 16.0.0, SVG Export Plug-In . SVG Version: 6.00 Build 0)  -->
<!DOCTYPE svg PUBLIC "-//W3C//DTD SVG 1.1//EN" "http://www.w3.org/Graphics/SVG/1.1/DTD/svg11.dtd">
<svg version="1.1" id="组_1_1_" xmlns="http://www.w3.org/2000/svg" xmlns:xlink="http://www.w3.org/1999/xlink" x="0px" y="0px"
	 width="44.994px" height="44.994px" viewBox="0 0 44.994 44.994" enable-background="new 0 0 44.994 44.994" xml:space="preserve">
<g id="形状_6">
	<g>
		<path fill-rule="evenodd" clip-rule="evenodd" fill="#00FFFF" d="M37.745,37.495h-8.249V24.497h2.25v1.5h1.5V13.999h-1.5v1.5h-1.5
			v-3.75H14.498v3.75h-1.5v-1.5h-1.5v11.999h1.5v-1.5h1.5v12.998H8.499c-1.243,0-2.25,1.007-2.25,2.249
			c0,1.243,1.007,2.25,2.25,2.25h29.246c1.243,0,2.25-1.007,2.25-2.25C39.995,38.502,38.988,37.495,37.745,37.495z M29.496,7.249
			c0,0-1.199-4.499-6.749-4.499c-5.549,0-6.749,4.499-6.749,4.499v3h13.498V7.249z M9.999,24.497v-8.999c0,0-4.499,1.05-4.499,4.5
			C5.5,23.446,9.999,24.497,9.999,24.497z M39.245,19.998c0-3.449-4.499-4.5-4.499-4.5v8.999
			C34.746,24.497,39.245,23.446,39.245,19.998z"/>
	</g>
</g>
<g id="椭圆_1">
	<g>
		<circle fill-rule="evenodd" clip-rule="evenodd" fill="#FFFFFF" cx="22.372" cy="20.373" r="3.375"/>
	</g>
</g>
</svg>
